<?xml version="1.0" encoding="UTF-8" standalone="no"?>
<svg
   xmlns:dc="http://purl.org/dc/elements/1.1/"
   xmlns:cc="http://creativecommons.org/ns#"
   xmlns:rdf="http://www.w3.org/1999/02/22-rdf-syntax-ns#"
   xmlns:svg="http://www.w3.org/2000/svg"
   xmlns="http://www.w3.org/2000/svg"
   xmlns:xlink="http://www.w3.org/1999/xlink"
   xmlns:sodipodi="http://sodipodi.sourceforge.net/DTD/sodipodi-0.dtd"
   xmlns:inkscape="http://www.inkscape.org/namespaces/inkscape"
   version="1.1"
   preserveAspectRatio="xMidYMid meet"
   viewBox="0 0 220.41008 232"
   width="220.41008"
   height="232"
   id="svg53"
   sodipodi:docname="DanHintzDesignLogo-DHSmileOutlined.svg"
   inkscape:version="0.92.4 (5da689c313, 2019-01-14)">
  <metadata
     id="metadata57">
    <rdf:RDF>
      <cc:Work
         rdf:about="">
        <dc:format>image/svg+xml</dc:format>
        <dc:type
           rdf:resource="http://purl.org/dc/dcmitype/StillImage" />
      </cc:Work>
    </rdf:RDF>
  </metadata>
  <sodipodi:namedview
     pagecolor="#ffffff"
     bordercolor="#666666"
     borderopacity="1"
     objecttolerance="10"
     gridtolerance="10"
     guidetolerance="10"
     inkscape:pageopacity="0"
     inkscape:pageshadow="2"
     inkscape:window-width="733"
     inkscape:window-height="480"
     id="namedview55"
     showgrid="false"
     inkscape:zoom="0.36875"
     inkscape:cx="111"
     inkscape:cy="106"
     inkscape:window-x="0"
     inkscape:window-y="0"
     inkscape:window-maximized="0"
     inkscape:current-layer="svg53" />
  <defs
     id="defs7">
    <path
       d="m 320,235 v 20 h -18.51 l -0.01,35.6 h 56.43 V 255 H 340.1 V 235 H 395 v 150 h -54.9 v -20 h 17.82 v -36.78 l -56.43,0.49 -0.01,36.29 h 17.32 l 0.51,20 H 264.8 l 0.2,-130 -0.2,-20 z"
       id="ibuQNvRiZ"
       inkscape:connector-curvature="0" />
    <path
       d="m 344.38,195.13 2.27,0.16 2.26,0.23 2.24,0.29 2.22,0.36 2.21,0.41 2.19,0.48 2.17,0.54 2.15,0.59 2.13,0.66 2.11,0.71 2.08,0.77 2.06,0.83 2.03,0.89 2,0.94 1.98,0.99 1.94,1.05 1.92,1.11 1.88,1.15 1.85,1.21 1.82,1.26 1.78,1.31 1.75,1.36 1.71,1.4 1.67,1.46 1.63,1.51 1.59,1.55 1.54,1.59 1.51,1.65 1.46,1.68 1.41,1.74 1.37,1.77 1.32,1.82 1.27,1.86 1.23,1.9 1.17,1.94 1.12,1.98 1.07,2.02 1.01,2.06 2.38,5.03 1.42,3.07 1.34,3.1 1.27,3.12 1.2,3.14 1.12,3.16 1.05,3.18 0.98,3.2 0.91,3.21 0.84,3.23 0.76,3.24 0.69,3.25 0.62,3.26 0.54,3.27 0.47,3.29 0.4,3.29 0.33,3.29 0.26,3.3 0.18,3.3 0.11,3.31 0.04,3.31 -0.04,3.31 -0.11,3.3 -0.18,3.31 -0.25,3.3 -0.33,3.29 -0.39,3.29 -0.47,3.28 -0.55,3.28 -0.61,3.26 -0.69,3.25 -0.76,3.24 -0.83,3.23 -0.91,3.21 -0.98,3.2 -1.05,3.18 -1.12,3.16 -1.2,3.14 -1.26,3.12 -1.34,3.1 -1.42,3.08 -1.95,4.12 -1.03,2.11 -1.09,2.07 -1.15,2.02 -1.19,1.99 -1.25,1.95 -1.31,1.9 -1.35,1.86 -1.4,1.82 -1.44,1.77 -1.5,1.73 -1.54,1.68 -1.58,1.64 -1.62,1.58 -1.67,1.54 -1.71,1.5 -1.75,1.44 -1.78,1.39 -1.83,1.34 -1.86,1.29 -1.89,1.23 -1.93,1.19 -1.96,1.13 -1.99,1.07 -2.02,1.02 -2.05,0.96 -2.08,0.91 -2.1,0.85 -2.13,0.79 -2.16,0.73 -2.18,0.67 -2.2,0.61 -2.22,0.55 -2.24,0.49 -2.26,0.43 -2.28,0.36 -2.29,0.3 -2.31,0.23 -2.32,0.17 -2.34,0.1 -2.35,0.03 H 210 v -20 h 7.4 l 0.93,-0.02 0.92,-0.05 0.91,-0.1 0.9,-0.13 0.89,-0.16 0.88,-0.2 0.86,-0.23 0.85,-0.26 0.84,-0.3 0.82,-0.33 0.8,-0.35 0.78,-0.39 0.77,-0.42 0.75,-0.45 0.74,-0.47 0.71,-0.5 0.69,-0.53 0.67,-0.55 0.64,-0.58 0.63,-0.6 0.6,-0.63 0.58,-0.64 0.55,-0.67 0.53,-0.69 0.5,-0.71 0.47,-0.74 0.45,-0.75 0.42,-0.77 0.39,-0.78 0.35,-0.8 0.33,-0.82 0.3,-0.84 0.26,-0.85 0.23,-0.86 0.2,-0.88 0.16,-0.89 0.13,-0.9 0.1,-0.91 0.05,-0.92 0.02,-0.93 V 238.3 l -0.02,-0.96 -0.06,-0.95 -0.09,-0.94 -0.13,-0.93 -0.17,-0.91 -0.21,-0.91 -0.24,-0.89 -0.27,-0.87 -0.3,-0.86 -0.34,-0.85 -0.37,-0.83 -0.4,-0.81 -0.43,-0.79 -0.46,-0.77 -0.49,-0.76 -0.52,-0.73 -0.54,-0.71 -0.57,-0.69 -0.59,-0.67 -0.63,-0.64 -0.64,-0.63 -0.67,-0.59 -0.69,-0.57 -0.71,-0.54 -0.73,-0.52 -0.76,-0.49 -0.77,-0.46 -0.79,-0.43 -0.81,-0.4 -0.83,-0.37 -0.85,-0.34 -0.86,-0.3 -0.87,-0.27 -0.89,-0.24 -0.91,-0.21 -0.91,-0.17 -0.93,-0.13 -0.94,-0.09 -0.95,-0.06 L 216.7,215 H 210 v -20 h 129.8 l 2.3,0.03 z M 270,395 h 65.5 l 1.14,-0.01 1.13,-0.05 1.13,-0.07 1.12,-0.11 1.12,-0.13 1.11,-0.16 1.1,-0.19 1.1,-0.21 1.08,-0.25 1.08,-0.27 1.07,-0.3 1.06,-0.32 1.05,-0.36 1.04,-0.38 1.03,-0.4 1.02,-0.43 1,-0.46 0.99,-0.48 0.98,-0.5 0.97,-0.54 0.95,-0.55 0.94,-0.58 0.92,-0.6 0.91,-0.63 0.9,-0.65 0.87,-0.68 0.86,-0.69 0.84,-0.72 0.83,-0.74 0.8,-0.77 0.79,-0.78 0.77,-0.81 0.75,-0.82 0.73,-0.85 0.71,-0.87 0.68,-0.89 0.67,-0.91 0.64,-0.93 0.62,-0.95 0.6,-0.97 1.48,-2.47 0.45,-0.74 0.44,-0.76 0.44,-0.75 0.44,-0.75 0.43,-0.76 0.43,-0.76 0.43,-0.76 0.42,-0.76 0.42,-0.76 0.41,-0.77 0.41,-0.76 0.41,-0.77 0.4,-0.78 0.4,-0.77 0.4,-0.77 0.39,-0.78 0.39,-0.78 0.39,-0.78 0.38,-0.78 0.38,-0.79 0.37,-0.78 0.37,-0.79 0.37,-0.79 0.36,-0.79 0.36,-0.79 0.36,-0.8 0.35,-0.79 0.35,-0.8 0.35,-0.8 0.34,-0.8 0.34,-0.8 0.33,-0.81 0.33,-0.8 0.27,-0.66 0.54,-1.69 0.57,-1.89 0.54,-1.89 0.5,-1.9 0.47,-1.91 0.43,-1.91 0.4,-1.92 0.37,-1.92 0.33,-1.93 0.3,-1.93 0.27,-1.93 0.23,-1.94 0.2,-1.94 0.16,-1.95 0.13,-1.94 0.1,-1.95 0.06,-1.95 0.03,-1.95 v -1.95 l -0.04,-1.95 -0.07,-1.94 -0.11,-1.95 -0.14,-1.95 -0.17,-1.94 -0.21,-1.94 -0.24,-1.94 -0.27,-1.94 -0.31,-1.93 -0.34,-1.93 -0.38,-1.92 -0.41,-1.92 -0.44,-1.91 -0.47,-1.9 -0.52,-1.9 -0.54,-1.9 -0.22,-0.7 v -0.01 l -0.31,-0.78 -0.32,-0.78 -0.32,-0.78 -0.32,-0.78 -0.33,-0.77 -0.33,-0.78 -0.33,-0.77 -0.34,-0.77 -0.34,-0.77 -0.34,-0.77 -0.35,-0.76 -0.35,-0.77 -0.36,-0.76 -0.36,-0.76 -0.36,-0.76 -0.36,-0.76 -0.37,-0.76 -0.37,-0.75 -0.38,-0.75 -0.38,-0.76 -0.38,-0.75 -0.39,-0.74 -0.39,-0.75 -0.39,-0.74 -0.39,-0.75 -0.4,-0.74 -0.41,-0.74 -0.4,-0.73 -0.41,-0.74 -0.19,-0.33 -0.35,-0.58 -0.87,-1.38 -0.91,-1.36 -0.94,-1.33 -0.98,-1.29 -1,-1.27 -1.04,-1.24 -1.07,-1.21 -1.09,-1.18 -1.12,-1.15 -1.16,-1.11 -1.17,-1.08 -1.21,-1.05 -1.23,-1.02 -1.25,-0.99 -1.28,-0.95 -1.31,-0.92 -1.32,-0.88 -1.35,-0.85 -1.37,-0.81 -1.38,-0.78 -1.41,-0.74 -1.43,-0.71 -1.45,-0.66 -1.46,-0.63 -1.48,-0.6 -1.5,-0.55 -1.51,-0.52 -1.53,-0.48 -1.54,-0.43 -1.56,-0.4 -1.57,-0.36 -1.58,-0.32 -1.59,-0.27 -1.6,-0.24 -1.61,-0.19 -1.62,-0.15 -1.63,-0.11 -1.64,-0.07 -1.64,-0.02 h -52.49 z m 118.52,-53.2 -0.31,0.81 -0.32,0.81 -0.32,0.81 -0.32,0.81 -0.06,0.15 -0.06,0.19 -0.64,1.86 -0.67,1.87 3.31,-8.94 -0.3,0.81 z m -0.94,-65.74 0.36,1.18 0.31,0.77 0.31,0.79 0.3,0.78 0.3,0.79 0.29,0.79 0.29,0.79 0.29,0.79 0.28,0.8 -3.99,-11.23 0.65,1.87 z m -10.54,-21.58 0.23,0.4 0.5,0.83 -1.56,-2.7 0.42,0.73 z"
       id="b1J9Drefbv"
       inkscape:connector-curvature="0" />
    <path
       d="m 301.97,255 h 55.6 v 35.5 h -55.6 z"
       id="jpNSr2S85"
       inkscape:connector-curvature="0" />
    <path
       d="m 301.97,329 h 55.6 v 35.5 h -55.6 z"
       id="axupd4nw5"
       inkscape:connector-curvature="0" />
    <path
       d="m 385.83,280.46 c 3.41,18.84 3.07,38.17 -1.02,56.87 -1.06,4.87 -0.38,1.77 -2.03,9.29 -2.17,9.94 -6.12,19.41 -11.65,27.94 -0.82,1.26 -2.86,4.41 -6.13,9.44 h 22 c 3.23,-5.04 5.25,-8.19 6.06,-9.45 4.97,-7.77 8.87,-16.17 11.59,-24.98 2.47,-7.99 -0.7,2.27 0.15,-0.48 7.96,-25.76 8.15,-53.29 0.57,-79.16 -0.94,-3.18 1.99,6.8 -0.42,-1.41 -2.82,-9.61 -7.21,-18.69 -13,-26.86 -0.66,-0.94 -2.31,-3.27 -4.95,-6.99 l -27,0.66 c 3.52,3.46 5.72,5.62 6.6,6.48 9.68,9.51 16.18,21.79 18.6,35.14 1.16,6.41 -0.24,-1.29 0.63,3.51 z"
       id="d2LhMz8LO"
       inkscape:connector-curvature="0" />
  </defs>
  <g
     id="g51"
     transform="translate(-209,-194)">
    <g
       id="g49">
      <g
         id="g15">
        <use
           xlink:href="#ibuQNvRiZ"
           id="use9"
           style="opacity:1;fill:#619dff;fill-opacity:1"
           x="0"
           y="0"
           width="100%"
           height="100%" />
        <g
           id="g13">
          <use
             xlink:href="#ibuQNvRiZ"
             id="use11"
             style="opacity:1;fill-opacity:0;stroke:#00004b;stroke-width:2;stroke-opacity:1"
             x="0"
             y="0"
             width="100%"
             height="100%" />
        </g>
      </g>
      <g
         id="g23">
        <use
           xlink:href="#b1J9Drefbv"
           id="use17"
           style="opacity:1;fill:#00004b;fill-opacity:0.97000002"
           x="0"
           y="0"
           width="100%"
           height="100%" />
        <g
           id="g21">
          <use
             xlink:href="#b1J9Drefbv"
             id="use19"
             style="opacity:1;fill-opacity:0;stroke:#ffffff;stroke-width:2;stroke-opacity:1"
             x="0"
             y="0"
             width="100%"
             height="100%" />
        </g>
      </g>
      <g
         id="g31">
        <use
           xlink:href="#jpNSr2S85"
           id="use25"
           style="opacity:1;fill:#7fff00;fill-opacity:0.98999999"
           x="0"
           y="0"
           width="100%"
           height="100%" />
        <g
           id="g29">
          <use
             xlink:href="#jpNSr2S85"
             id="use27"
             style="opacity:1;fill-opacity:0;stroke:#00004b;stroke-width:1;stroke-opacity:1"
             x="0"
             y="0"
             width="100%"
             height="100%" />
        </g>
      </g>
      <g
         id="g39">
        <use
           xlink:href="#axupd4nw5"
           id="use33"
           style="opacity:1;fill:#7fff00;fill-opacity:0.98999999"
           x="0"
           y="0"
           width="100%"
           height="100%" />
        <g
           id="g37">
          <use
             xlink:href="#axupd4nw5"
             id="use35"
             style="opacity:1;fill-opacity:0;stroke:#00004b;stroke-width:1;stroke-opacity:1"
             x="0"
             y="0"
             width="100%"
             height="100%" />
        </g>
      </g>
      <g
         id="g47">
        <use
           xlink:href="#d2LhMz8LO"
           id="use41"
           style="opacity:1;fill:#7fff00;fill-opacity:0.98999999"
           x="0"
           y="0"
           width="100%"
           height="100%" />
        <g
           id="g45">
          <use
             xlink:href="#d2LhMz8LO"
             id="use43"
             style="opacity:1;fill-opacity:0;stroke:#00004b;stroke-width:1;stroke-opacity:1"
             x="0"
             y="0"
             width="100%"
             height="100%" />
        </g>
      </g>
    </g>
  </g>
</svg>
